<svg width="640" height="480" viewBox="0 0 640 480" fill="none" xmlns="http://www.w3.org/2000/svg">
<rect width="640" height="480" fill="#4F4F4F"/>
<g clip-path="url(#clip0_814_15)">
<path d="M320 120C253.728 120 200 173.728 200 240C200 306.272 253.728 360 320 360C386.272 360 440 306.272 440 240C440 173.728 386.272 120 320 120ZM270.312 258.75C266.604 258.75 262.979 257.65 259.896 255.59C256.812 253.53 254.409 250.601 252.99 247.175C251.571 243.749 251.199 239.979 251.923 236.342C252.646 232.705 254.432 229.364 257.054 226.742C259.676 224.12 263.017 222.334 266.655 221.61C270.292 220.887 274.062 221.258 277.488 222.677C280.914 224.096 283.842 226.5 285.903 229.583C287.963 232.666 289.062 236.292 289.062 240C289.062 244.973 287.087 249.742 283.571 253.258C280.054 256.775 275.285 258.75 270.312 258.75ZM320 258.75C316.292 258.75 312.666 257.65 309.583 255.59C306.5 253.53 304.096 250.601 302.677 247.175C301.258 243.749 300.887 239.979 301.61 236.342C302.334 232.705 304.12 229.364 306.742 226.742C309.364 224.12 312.705 222.334 316.342 221.61C319.979 220.887 323.749 221.258 327.175 222.677C330.601 224.096 333.53 226.5 335.59 229.583C337.65 232.666 338.75 236.292 338.75 240C338.75 244.973 336.775 249.742 333.258 253.258C329.742 256.775 324.973 258.75 320 258.75ZM369.688 258.75C365.979 258.75 362.354 257.65 359.271 255.59C356.187 253.53 353.784 250.601 352.365 247.175C350.946 243.749 350.574 239.979 351.298 236.342C352.021 232.705 353.807 229.364 356.429 226.742C359.051 224.12 362.392 222.334 366.03 221.61C369.667 220.887 373.437 221.258 376.863 222.677C380.289 224.096 383.217 226.5 385.278 229.583C387.338 232.666 388.438 236.292 388.438 240C388.438 244.973 386.462 249.742 382.946 253.258C379.429 256.775 374.66 258.75 369.688 258.75Z" fill="#8E8E8E"/>
</g>
<defs>
<clipPath id="clip0_814_15">
<rect width="240" height="240" fill="white" transform="translate(200 120)"/>
</clipPath>
</defs>
</svg>
