<svg xmlns="http://www.w3.org/2000/svg" version="1.1" xmlns:xlink="http://www.w3.org/1999/xlink" xmlns:svgjs="http://svgjs.com/svgjs" width="512" height="512" x="0" y="0" viewBox="0 0 32 32" style="enable-background:new 0 0 512 512" xml:space="preserve" class=""><g><path d="M19 14h7c.4 0 .8-.2.9-.6.2-.4.1-.8-.2-1.1l-2.1-2.1 4.8-4.8c.8-.8.8-2 0-2.8-.4-.4-.9-.6-1.4-.6s-1 .2-1.4.6l-4.8 4.8-2.1-2.1c-.2-.2-.4-.3-.7-.3-.1 0-.3 0-.4.1-.4.1-.6.5-.6.9v7c0 .6.4 1 1 1zM5.4 29.4l4.8-4.8 2.1 2.1c.3.3.7.4 1.1.2s.6-.5.6-.9v-7c0-.6-.4-1-1-1H6c-.4 0-.8.2-.9.6-.2.4-.1.8.2 1.1l2.1 2.1-4.8 4.8c-.8.8-.8 2 0 2.8s2 .8 2.8 0zM18.6 26.9c.4.2.8.1 1.1-.2l2.1-2.1 4.8 4.8c.8.8 2 .8 2.8 0s.8-2 0-2.8l-4.8-4.8 2.1-2.1c.3-.3.4-.7.2-1.1-.1-.4-.5-.6-.9-.6h-7c-.6 0-1 .4-1 1v7c0 .4.2.8.6.9zM7.4 10.2l-2.1 2.1c-.3.3-.4.7-.2 1.1.1.4.5.6.9.6h7c.6 0 1-.4 1-1V6c0-.4-.2-.8-.6-.9-.1-.1-.3-.1-.4-.1-.3 0-.5.1-.7.3l-2.1 2.1-4.8-4.8C5 2.2 4.5 2 4 2s-1 .2-1.4.6c-.8.8-.8 2 0 2.8z" fill="#ffffff" data-original="#000000" opacity="1"></path></g></svg>