<svg width="512" height="512" viewBox="0 0 512 512" fill="none" xmlns="http://www.w3.org/2000/svg">
<g clip-path="url(#clip0_814_2)">
<path fill-rule="evenodd" clip-rule="evenodd" d="M362.039 -362L0 0.0386658L512.213 512.252L874.252 150.213L362.039 -362ZM261 166.165C261 106.743 310.001 58.5626 370.5 58.5626C430.971 58.5626 480 106.743 480 166.165C480 213.642 448.656 253.993 404.846 268.118C399.235 269.195 397.318 265.828 397.318 263.008C397.318 261.855 397.333 259.821 397.353 257.097C397.394 251.567 397.455 243.19 397.455 233.544C397.455 223.46 393.897 216.863 390.064 213.633C414.428 210.987 440.023 201.889 440.023 160.553C440.023 148.809 435.78 139.209 428.8 131.681C429.895 128.962 433.59 118.021 427.705 103.202C427.705 103.202 418.534 100.319 397.729 114.234C388.969 111.843 379.661 110.657 370.354 110.602C361.047 110.657 351.739 111.843 342.979 114.234C322.037 100.319 312.866 103.202 312.866 103.202C306.981 118.021 310.677 128.962 311.908 131.681C304.882 139.209 300.639 148.809 300.639 160.553C300.639 201.779 326.198 211.032 350.516 213.724C347.386 216.416 344.567 221.152 343.581 228.114C337.322 230.861 321.453 235.615 311.689 219.163C311.689 219.163 305.913 208.824 294.918 208.076C294.918 208.076 284.232 207.939 294.151 214.609C294.151 214.609 301.351 217.931 306.333 230.35C306.333 230.35 312.757 251.273 343.216 244.786C343.242 249.768 343.281 254.072 343.311 257.351C343.335 259.976 343.353 261.945 343.353 263.081C343.353 265.937 341.346 269.268 335.871 268.255C292.372 254.038 261 213.715 261 166.165Z" fill="white"/>
</g>
<defs>
<clipPath id="clip0_814_2">
<rect width="512" height="512" fill="white"/>
</clipPath>
</defs>
</svg>
